<?xml version="1.0" encoding="UTF-8" standalone="no"?>
<!DOCTYPE svg PUBLIC "-//W3C//DTD SVG 1.1//EN" "http://www.w3.org/Graphics/SVG/1.1/DTD/svg11.dtd">
<svg version="1.1" xmlns="http://www.w3.org/2000/svg" xmlns:xlink="http://www.w3.org/1999/xlink" preserveAspectRatio="xMidYMid meet" viewBox="0 0 960 1080" width="960" height="1080"><defs><path d="M902.08 540C902.08 772.95 712.95 962.08 480 962.08C247.05 962.08 57.92 772.95 57.92 540C57.92 307.05 247.05 117.92 480 117.92C712.95 117.92 902.08 307.05 902.08 540Z" id="atCQ9pqiS"></path><path d="M348.73 740.92L217.46 941.83L186.18 917.49L154.9 893.14L317.45 716.57L480 540L348.73 740.92Z" id="d1I1TCrrQB"></path><path d="M642.55 363.43L805.1 186.86L773.82 162.51L742.54 138.17L611.27 339.08L480 540L642.55 363.43Z" id="g2V0RVPkFU"></path><path d="M290.6 687.41L101.2 834.81L79.52 801.62L57.85 768.44L268.92 654.22L480 540L290.6 687.41Z" id="bgOhzYigc"></path><path d="M691.08 425.78L902.15 311.56L880.48 278.37L858.8 245.19L669.4 392.59L480 540L691.08 425.78Z" id="c4vnWt7GrI"></path><path d="M253 617.92L26 695.84L16.27 657.41L6.54 618.98L243.27 579.49L480 540L253 617.92Z" id="a1cYeV3qws"></path><path d="M716.73 500.51L953.46 461.02L943.73 422.59L934 384.16L707 462.08L480 540L716.73 500.51Z" id="c1g5LJ9ES8"></path><path d="M240 539.99L0 539.97L3.28 500.47L6.55 460.97L243.28 500.48L480 540L240 539.99Z" id="cbKUASQa1"></path><path d="M716.72 579.52L953.45 619.03L956.72 579.53L960 540.03L720 540.01L480 540L716.72 579.52Z" id="b3ptCYVInP"></path><path d="M253.01 462.06L26.02 384.11L41.94 347.81L57.87 311.52L268.93 425.76L480 540L253.01 462.06Z" id="f3nB7iYiY6"></path><path d="M691.07 654.24L902.13 768.48L918.06 732.18L933.98 695.89L706.99 617.94L480 540L691.07 654.24Z" id="a8ysrYsTJ"></path><path d="M290.62 392.57L101.24 245.15L128.08 215.99L154.93 186.83L317.47 363.41L480 540L290.62 392.57Z" id="d9kWj8HFT"></path><path d="M642.53 716.59L805.07 893.17L831.92 864.01L858.76 834.85L669.38 687.42L480 540L642.53 716.59Z" id="bcv4dg0yp"></path><path d="M348.75 339.07L217.5 138.14L252.36 119.27L287.22 100.41L383.61 320.2L480 540L348.75 339.07Z" id="d18NUUImTr"></path><path d="M576.39 759.79L672.78 979.59L707.64 960.73L742.5 941.86L611.25 740.93L480 540L576.39 759.79Z" id="a1dbshuCpT"></path><path d="M421.11 307.34L362.21 74.68L401.31 68.16L440.41 61.64L460.21 300.82L480 540L421.11 307.34Z" id="bd4rbhqMN"></path><path d="M499.8 779.18L519.59 1018.36L558.69 1011.84L597.79 1005.32L538.9 772.66L480 540L499.8 779.18Z" id="b2bnSqVswd"></path><path d="M499.94 300.82L519.79 61.64L558.89 68.17L597.98 74.7L539.04 307.35L480.1 540L499.94 300.82Z" id="g4JHF5YPL"></path><path d="M421.16 772.65L362.21 1005.3L401.31 1011.83L440.41 1018.36L460.25 779.18L480.1 540L421.16 772.65Z" id="b2L88q3CdN"></path><path d="M420.12 774.93L360.24 1009.86L287.66 977.99L215.08 946.12L347.54 743.06L480 540L420.12 774.93Z" id="d1OGVgkf6E"></path><path d="M539.88 305.07L599.76 70.14L672.34 102.01L744.92 133.88L612.46 336.94L480 540L539.88 305.07Z" id="b789HghkIt"></path><path d="M902.08 540C902.08 772.95 712.95 962.08 480 962.08C247.05 962.08 57.92 772.95 57.92 540C57.92 307.05 247.05 117.92 480 117.92C712.95 117.92 902.08 307.05 902.08 540Z" id="bVUAGXT5"></path><path d="M846.44 540C846.44 741.89 682.53 905.81 480.63 905.81C278.74 905.81 114.83 741.89 114.83 540C114.83 338.11 278.74 174.19 480.63 174.19C682.53 174.19 846.44 338.11 846.44 540Z" id="a4wCvk4mBz"></path></defs><g><g><g><g><use xlink:href="#atCQ9pqiS" opacity="1" fill="#dc2c26" fill-opacity="0"></use><g><use xlink:href="#atCQ9pqiS" opacity="1" fill-opacity="0" stroke="#dc2d26" stroke-width="110" stroke-opacity="1"></use></g></g><g><g><g><use xlink:href="#d1I1TCrrQB" opacity="1" fill="#000000" fill-opacity="1"></use></g><g><use xlink:href="#g2V0RVPkFU" opacity="1" fill="#000000" fill-opacity="1"></use></g></g><g><g><use xlink:href="#bgOhzYigc" opacity="1" fill="#000000" fill-opacity="1"></use></g><g><use xlink:href="#c4vnWt7GrI" opacity="1" fill="#000000" fill-opacity="1"></use></g></g><g><g><use xlink:href="#a1cYeV3qws" opacity="1" fill="#000000" fill-opacity="1"></use></g><g><use xlink:href="#c1g5LJ9ES8" opacity="1" fill="#000000" fill-opacity="1"></use></g></g><g><g><use xlink:href="#cbKUASQa1" opacity="1" fill="#000000" fill-opacity="1"></use></g><g><use xlink:href="#b3ptCYVInP" opacity="1" fill="#000000" fill-opacity="1"></use></g></g><g><g><use xlink:href="#f3nB7iYiY6" opacity="1" fill="#000000" fill-opacity="1"></use></g><g><use xlink:href="#a8ysrYsTJ" opacity="1" fill="#000000" fill-opacity="1"></use></g></g><g><g><use xlink:href="#d9kWj8HFT" opacity="1" fill="#000000" fill-opacity="1"></use></g><g><use xlink:href="#bcv4dg0yp" opacity="1" fill="#000000" fill-opacity="1"></use></g></g><g><g><use xlink:href="#d18NUUImTr" opacity="1" fill="#000000" fill-opacity="1"></use></g><g><use xlink:href="#a1dbshuCpT" opacity="1" fill="#000000" fill-opacity="1"></use></g></g><g><g><use xlink:href="#bd4rbhqMN" opacity="1" fill="#000000" fill-opacity="1"></use></g><g><use xlink:href="#b2bnSqVswd" opacity="1" fill="#000000" fill-opacity="1"></use></g></g><g><g><use xlink:href="#g4JHF5YPL" opacity="1" fill="#000000" fill-opacity="1"></use></g><g><use xlink:href="#b2L88q3CdN" opacity="1" fill="#000000" fill-opacity="1"></use></g></g></g><g><g><use xlink:href="#d1OGVgkf6E" opacity="1" fill="#64ac2f" fill-opacity="1"></use></g><g><use xlink:href="#b789HghkIt" opacity="1" fill="#64ac2f" fill-opacity="1"></use></g></g><g><use xlink:href="#bVUAGXT5" opacity="1" fill="#dc2c26" fill-opacity="0"></use><g><use xlink:href="#bVUAGXT5" opacity="1" fill-opacity="0" stroke="#ffffff" stroke-width="10" stroke-opacity="1"></use></g></g><g><use xlink:href="#a4wCvk4mBz" opacity="1" fill="#c08946" fill-opacity="1"></use><g><use xlink:href="#a4wCvk4mBz" opacity="1" fill-opacity="0" stroke="#000000" stroke-width="4" stroke-opacity="1"></use></g><g><filter id="shadow5462909" x="94.83" y="154.19" width="772.61" height="772.61" filterUnits="userSpaceOnUse" primitiveUnits="userSpaceOnUse"><feFlood></feFlood><feComposite in2="SourceAlpha" operator="out"></feComposite><feGaussianBlur stdDeviation="2.24"></feGaussianBlur><feOffset dx="1" dy="1" result="afterOffset"></feOffset><feFlood flood-color="#000000" flood-opacity="0.8"></feFlood><feComposite in2="afterOffset" operator="in"></feComposite><feMorphology operator="dilate" radius="4"></feMorphology><feComposite in2="SourceAlpha" operator="in"></feComposite></filter><path d="M846.44 540C846.44 741.89 682.53 905.81 480.63 905.81C278.74 905.81 114.83 741.89 114.83 540C114.83 338.11 278.74 174.19 480.63 174.19C682.53 174.19 846.44 338.11 846.44 540Z" id="dOJfAdNgj" fill="white" fill-opacity="1" filter="url(#shadow5462909)"></path></g></g></g></g></g></svg>